<?xml version="1.0" encoding="utf-8"?>
<!-- Svg Vector Icons : http://www.onlinewebfonts.com/icon -->
<!DOCTYPE svg PUBLIC "-//W3C//DTD SVG 1.1//EN" "http://www.w3.org/Graphics/SVG/1.1/DTD/svg11.dtd">
<svg version="1.1" xmlns="http://www.w3.org/2000/svg" xmlns:xlink="http://www.w3.org/1999/xlink" x="0px" y="0px" viewBox="0 0 1000 1000" enable-background="new 0 0 1000 1000" xml:space="preserve">
<metadata> Svg Vector Icons : http://www.onlinewebfonts.com/icon </metadata>
<g><g transform="matrix(1 0 0 -1 0 1536)"><path d="M990,1240.2c0-8.5-3.3-16-9.8-22.6L522.6,760.1c-6.5-6.5-14.1-9.8-22.6-9.8c-8.5,0-16,3.3-22.6,9.8L19.8,1217.7c-6.5,6.5-9.8,14.1-9.8,22.6c0,8.5,3.3,16,9.8,22.6l49.1,49.1c6.5,6.5,14.1,9.8,22.6,9.8c8.5,0,16-3.3,22.6-9.8L500,926l385.9,385.9c6.5,6.5,14.1,9.8,22.6,9.8c8.5,0,16-3.3,22.6-9.8l49.1-49.1C986.7,1256.3,990,1248.8,990,1240.2z"/></g></g>
</svg>